HIERARCHY
ROOT Hips
{
	OFFSET 0.00000 0.00000 0.00000
	CHANNELS 6 Xposition Yposition Zposition Zrotation Yrotation Xrotation 
	JOINT LHipJoint
	{
		OFFSET 0 0 0
		CHANNELS 3 Zrotation Yrotation Xrotation
		JOINT LeftUpLeg
		{
			OFFSET 1.81424 -1.42316 1.18090
			CHANNELS 3 Zrotation Yrotation Xrotation
			JOINT LeftLeg
			{
				OFFSET 2.15837 -5.93008 0.00000
				CHANNELS 3 Zrotation Yrotation Xrotation
				JOINT LeftFoot
				{
					OFFSET 2.51759 -6.91701 0.00000
					CHANNELS 3 Zrotation Yrotation Xrotation
					JOINT LeftToeBase
					{
						OFFSET 0.18318 -0.50327 1.95113
						CHANNELS 3 Zrotation Yrotation Xrotation
						End Site
						{
							OFFSET 0.00000 -0.00000 1.01524
						}
					}
				}
			}
		}
	}
	JOINT RHipJoint
	{
		OFFSET 0 0 0
		CHANNELS 3 Zrotation Yrotation Xrotation
		JOINT RightUpLeg
		{
			OFFSET -1.43917 -1.42316 1.18090
			CHANNELS 3 Zrotation Yrotation Xrotation
			JOINT RightLeg
			{
				OFFSET -2.25237 -6.18833 0.00000
				CHANNELS 3 Zrotation Yrotation Xrotation
				JOINT RightFoot
				{
					OFFSET -2.46496 -6.77243 0.00000
					CHANNELS 3 Zrotation Yrotation Xrotation
					JOINT RightToeBase
					{
						OFFSET -0.26285 -0.72219 1.76148
						CHANNELS 3 Zrotation Yrotation Xrotation
						End Site
						{
							OFFSET -0.00000 -0.00000 0.95109
						}
					}
				}
			}
		}
	}
	JOINT LowerBack
	{
		OFFSET 0 0 0
		CHANNELS 3 Zrotation Yrotation Xrotation
		JOINT Spine
		{
			OFFSET -0.08725 1.93754 -0.28890
			CHANNELS 3 Zrotation Yrotation Xrotation
			JOINT Spine1
			{
				OFFSET 0.01195 1.94849 0.05967
				CHANNELS 3 Zrotation Yrotation Xrotation
				JOINT Neck
				{
					OFFSET 0 0 0
					CHANNELS 3 Zrotation Yrotation Xrotation
					JOINT Neck1
					{
						OFFSET 0.02762 1.60124 0.34160
						CHANNELS 3 Zrotation Yrotation Xrotation
						JOINT Head
						{
							OFFSET -0.04785 1.66713 -0.24070
							CHANNELS 3 Zrotation Yrotation Xrotation
							End Site
							{
								OFFSET -0.02188 1.68591 -0.11959
							}
						}
					}
				}
				JOINT LeftShoulder
				{
					OFFSET 0 0 0
					CHANNELS 3 Zrotation Yrotation Xrotation
					JOINT LeftArm
					{
						OFFSET 2.59610 1.78696 -0.28854
						CHANNELS 3 Zrotation Yrotation Xrotation
						JOINT LeftForeArm
						{
							OFFSET 5.17853 -0.00000 0.00000
							CHANNELS 3 Zrotation Yrotation Xrotation
							JOINT LeftHand
							{
								OFFSET 3.40399 -0.00000 -0.00000
								CHANNELS 3 Zrotation Yrotation Xrotation
								JOINT LeftFingerBase
								{
									OFFSET 0 0 0
									CHANNELS 3 Zrotation Yrotation Xrotation
									JOINT LeftHandIndex1
									{
										OFFSET 0.70896 -0.00000 -0.00000
										CHANNELS 3 Zrotation Yrotation Xrotation
										End Site
										{
											OFFSET 0.57159 -0.00000 -0.00000
										}
									}
								}
								JOINT LThumb
								{
									OFFSET 0 0 0
									CHANNELS 3 Zrotation Yrotation Xrotation
									End Site
									{
										OFFSET 0.58031 -0.00000 0.58031
									}
								}
							}
						}
					}
				}
				JOINT RightShoulder
				{
					OFFSET 0 0 0
					CHANNELS 3 Zrotation Yrotation Xrotation
					JOINT RightArm
					{
						OFFSET -2.87749 1.55486 -0.73085
						CHANNELS 3 Zrotation Yrotation Xrotation
						JOINT RightForeArm
						{
							OFFSET -5.42351 -0.00000 -0.00000
							CHANNELS 3 Zrotation Yrotation Xrotation
							JOINT RightHand
							{
								OFFSET -3.42066 -0.00000 -0.00000
								CHANNELS 3 Zrotation Yrotation Xrotation
								JOINT RightFingerBase
								{
									OFFSET 0 0 0
									CHANNELS 3 Zrotation Yrotation Xrotation
									JOINT RightHandIndex1
									{
										OFFSET -0.74361 -0.00000 -0.00000
										CHANNELS 3 Zrotation Yrotation Xrotation
										End Site
										{
											OFFSET -0.59952 -0.00000 -0.00000
										}
									}
								}
								JOINT RThumb
								{
									OFFSET 0 0 0
									CHANNELS 3 Zrotation Yrotation Xrotation
									End Site
									{
										OFFSET -0.60867 -0.00000 0.60867
									}
								}
							}
						}
					}
				}
			}
		}
	}
}
MOTION
Frames: 8
Frame Time: 0.0512821
0.00 0.00 0.00 0 0 0 0 0 0 -21 0 0 0 0 0 0 0 0 0 0 0 0 0 0 21 0 0 0 0 0 0 0 0 0 0 0 0 0 0 0 0 0 0 0 0 0 0 -16 0 0 21 0 0 11 0 0 0 -8 0 0 0 0 0 0 0 0 0 0 0 0 0 0 0 0 0 0 0 0 8 0 0 0 0 0 0 0 0 0 0 0 0 0 0 0 0 0
0.00 0.00 0.00 82.1620 23.8154 -27.8829 0.0000 0.0000 0.0000 -20.1835 16.6418 -21.1374 16.0261 19.6171 78.3094 1.0736 -6.5868 23.0010 1.5454 -7.8469 -22.2499 0.0000 0.0000 0.0000 -6.3918 13.1637 -48.7335 -4.4673 -12.7575 38.4674 1.3747 -20.6871 -12.6604 -0.0101 -0.6483 1.7817 -6.8124 -0.9942 17.9229 -3.2510 -2.8108 4.0974 1.0088 -1.3125 -5.4600 9.4030 1.2266 -19.9467 13.8674 -5.7790 25.8044 2.7871 0.2925 12.3462 -0.0000 0.0000 0.0000 -129.0886 -51.6915 117.2650 44.5351 -50.5387 -21.8792 -0.0000 0.0000 -22.9340 31.6565 -43.1638 -22.8692 -7.1250 0.0000 -0.0000 -2.9081 -17.7410 3.6598 -0.0000 0.0000 0.0000 -48.6671 61.4963 -100.8249 -8.8568 14.9318 -1.1629 0.0000 -0.0000 -33.7805 -18.2036 23.8514 -7.5746 7.1250 -0.0000 -0.0000 6.8140 -5.1713 6.2172
0.00 0.00 0.00 78.7836 29.7243 -30.0230 0.0000 0.0000 0.0000 -15.2231 21.0618 -22.3021 16.3671 19.6806 79.3236 1.7997 -8.6113 29.6833 0.5690 -4.8311 -13.4274 0.0000 0.0000 0.0000 -6.9513 8.0341 -45.4791 -4.0778 -12.2633 36.6698 1.4490 -20.8227 -10.1926 -0.1324 2.3456 -6.4618 -6.4854 0.9372 16.9370 -2.2515 -0.0143 3.6649 1.2778 0.0905 -5.5563 9.2773 1.7912 -19.4009 9.7799 -3.7329 27.5607 1.6152 0.7774 12.6552 -0.0000 -0.0000 0.0000 -106.6027 -49.8483 100.8744 61.0677 -56.5878 -35.2309 -0.0000 0.0000 -23.8148 30.2924 -43.2222 -21.8044 -7.1250 0.0000 -0.0000 -3.5751 -17.3651 4.4864 -0.0000 -0.0000 0.0000 -36.1597 64.4163 -72.2453 -7.6926 13.0534 -0.8814 0.0000 -0.0000 -13.1105 -31.0737 23.0029 -13.2510 7.1250 -0.0000 -0.0000 -1.2321 -3.6193 -1.1522
0.00 0.00 0.00 76.3454 35.6252 -31.6190 0.0000 0.0000 0.0000 -12.8208 24.4725 -21.8638 15.8072 19.5732 77.6567 2.7146 -7.4235 34.4019 0.5042 -4.5517 -12.6343 0.0000 0.0000 0.0000 -12.1091 6.8813 -40.3844 -3.4062 -11.3252 33.3846 0.9999 -19.0873 -15.6955 -0.2017 -2.8921 7.9786 -7.1841 2.3690 14.8218 -1.6382 2.0321 3.6089 1.9407 1.1012 -4.6479 9.5937 2.6368 -19.1276 6.7329 -1.7327 29.5201 0.7668 1.4211 13.2871 0.0000 -0.0000 0.0000 -83.7139 -43.0394 82.6254 79.1334 -59.5491 -50.6035 -0.0000 0.0000 -22.8687 29.3721 -43.8718 -21.3091 -7.1250 0.0000 -0.0000 -4.1967 -17.7199 5.2864 0.0000 -0.0000 0.0000 -16.4327 71.5740 -46.9027 -5.6648 9.7020 -0.4812 0.0000 -0.0000 -5.9546 -28.7072 28.1397 -14.4820 7.1250 -0.0000 -0.0000 1.0286 1.3904 1.0534
0.00 0.00 0.00 77.4640 40.7465 -31.3945 0.0000 0.0000 0.0000 -14.8437 25.8260 -21.4934 15.4850 19.5041 76.6934 3.0374 -8.2329 36.5455 0.5356 -4.6893 -13.0244 0.0000 0.0000 0.0000 -17.4796 5.8426 -37.0501 -3.1565 -10.9443 32.0921 1.2040 -20.1404 -14.9014 -0.0931 -1.9683 5.4181 -9.9478 3.3273 14.1846 -2.1640 3.0043 3.9632 2.7674 1.5926 -4.0960 10.0700 3.0425 -18.9445 4.5009 -0.5617 30.7258 0.0330 1.7607 13.7286 0.0000 -0.0000 0.0000 -72.8595 -37.0380 74.3679 84.2743 -59.8758 -55.0435 -0.0000 0.0000 -23.5296 30.0533 -44.7873 -22.1760 -7.1250 0.0000 -0.0000 -4.1419 -18.8235 5.2677 0.0000 -0.0000 0.0000 7.4141 72.0029 -15.8312 -5.6957 9.7537 -0.4864 0.0000 -0.0000 -9.4300 -26.6178 28.0688 -13.2684 7.1250 -0.0000 -0.0000 2.2382 0.8141 2.2715
0.00 0.00 0.00 56.4142 43.2217 -43.1142 0.0000 0.0000 0.0000 0.3386 29.2532 -29.1736 17.2127 19.8127 81.8259 3.0174 -10.7496 37.8720 0.7066 -5.3727 -14.9747 0.0000 0.0000 0.0000 -10.5348 9.4720 -22.7991 -0.8925 -6.0215 16.8469 0.8078 -25.3305 -30.5679 -0.5272 -4.6530 12.9215 2.2182 3.8924 10.8513 1.3561 5.5261 3.6920 -0.5223 2.7998 -2.1389 10.5524 4.1247 -16.4023 -1.3723 3.7055 38.6404 -1.6213 3.3725 17.1616 0.0000 0.0000 0.0000 -50.7028 -23.3306 61.6194 62.4624 -56.9312 -36.3975 -0.0000 0.0000 -24.6689 33.2199 -44.2339 -24.5526 -7.1250 0.0000 -0.0000 -2.4979 -19.3100 3.1857 0.0000 0.0000 0.0000 59.9787 51.5146 28.3627 -10.9861 18.2670 -1.7716 0.0000 -0.0000 -3.4268 -10.6047 25.1192 -4.5443 7.1250 -0.0000 -0.0000 11.5431 -4.9131 10.7369
0.00 0.00 0.00 40.7026 48.2992 -55.0260 0.0000 0.0000 0.0000 2.9395 25.2438 -35.6400 19.0177 19.9768 87.1268 2.1645 -7.1080 31.0558 0.0148 0.7845 2.1561 0.0000 0.0000 0.0000 3.1028 -7.1290 -23.4978 -1.5801 -7.9305 22.5031 1.2593 -24.1887 -24.7054 -0.2642 -3.3065 9.1333 8.2318 3.7154 9.8983 1.5203 5.7949 5.3224 -3.5012 3.1460 0.6986 7.1644 2.1110 -7.2590 -2.3508 4.0502 43.7933 -1.4481 3.4670 17.6189 -0.0000 -0.0000 0.0000 -57.2156 -32.3389 56.3299 25.4951 -36.7057 -8.5841 -0.0000 0.0000 -22.2559 37.6536 -39.1541 -25.9749 -7.1250 0.0000 -0.0000 1.2140 -15.8150 -1.4992 -0.0000 -0.0000 0.0000 70.8300 38.2086 20.2009 -7.6085 12.9162 -0.8625 0.0000 0.0000 13.5117 8.3453 22.5365 3.2179 7.1250 -0.0000 -0.0000 22.8838 -8.5382 21.0335
0.00 0.00 0.00 37.1916 49.6280 -56.7449 0.0000 0.0000 0.0000 0.6596 21.8005 -39.5901 19.6284 19.9967 88.9135 2.2189 -7.9561 31.8754 0.1657 2.6225 7.2295 0.0000 0.0000 0.0000 9.8617 -5.3384 -20.9219 -2.4382 -9.7248 28.0899 1.6158 -22.1737 -12.8869 -0.0325 -1.1629 3.1972 7.7821 1.1525 13.7637 1.0453 2.6308 10.7230 -3.4965 1.9479 4.0146 5.6923 3.1242 -3.4828 -4.3017 7.7688 45.1030 -1.5366 4.7419 17.7801 -0.0000 -0.0000 0.0000 -64.3494 -35.0853 45.9014 13.8750 -22.5557 -2.7800 -0.0000 0.0000 -16.1721 39.0103 -39.2453 -27.1348 -7.1250 0.0000 -0.0000 1.8582 -16.4319 -2.3089 -0.0000 -0.0000 0.0000 78.7591 46.9671 15.2349 -3.1135 5.3743 -0.1462 0.0000 0.0000 31.6334 -0.6110 22.7754 -0.2366 7.1250 -0.0000 -0.0000 17.6001 -8.0369 15.7487
